#N canvas 1605 686 987 469 12;
#N canvas 1277 791 450 186 OSC_Receive 0;
#X obj 32 102 netreceive -u -b;
#X msg 44 75 listen 0;
#X text 133 74 stop listening;
#X text 171 102 UDP packets \, binary output, f 13;
#X obj 32 18 loadbang;
#X obj 32 124 outlet;
#X text 134 47 listen on port 8002;
#X msg 32 47 listen 8001;
#X connect 0 0 5 0;
#X connect 1 0 0 0;
#X connect 4 0 7 0;
#X connect 7 0 0 0;
#X restore 61 45 pd OSC_Receive;
#X msg 232 67 \; pd dsp 1;
#X obj 232 44 loadbang;
#X obj 61 75 oscparse;
#N canvas 1602 229 1366 351 Game_Sounds 1;
#X obj 49 33 inlet;
#X obj 15 64 bng 15 250 50 0 empty empty empty 17 7 0 10 -262144 -1
-1;
#X obj 268 40 r Step;
#X obj 364 36 r Damaged;
#X obj 364 61 bng 15 250 50 0 empty empty empty 17 7 0 10 -262144 -1
-1;
#X obj 470 34 r Collected_Token;
#X msg 470 60 \$1;
#N canvas 1569 479 1254 1041 Step_SFX 0;
#X obj 166 36 inlet;
#X obj 158 87 t b b;
#X obj 185 192 vline~;
#X obj 176 236 *~;
#X obj 75 302 *~;
#X obj 83 224 noise~;
#X floatatom 252 251 5 0 0 0 - - -;
#X floatatom 320 235 5 0 0 0 - - -;
#X obj 271 305 bp~ 2500 3;
#X obj 367 556 lop~ 8000;
#X obj 168 653 *~ 4;
#X floatatom 223 590 5 0 0 0 - - -;
#X obj 76 461 bp~ 340 20;
#X msg 189 146 0 0 0 \, 1 1 0 \, 0.25 25 5 \, 0 300 25;
#X obj 327 659 throw~ sfx_step;
#X connect 0 0 1 0;
#X connect 1 0 13 0;
#X connect 2 0 3 0;
#X connect 2 0 3 1;
#X connect 3 0 4 1;
#X connect 4 0 8 0;
#X connect 4 0 12 0;
#X connect 5 0 4 0;
#X connect 6 0 8 1;
#X connect 7 0 8 2;
#X connect 8 0 9 0;
#X connect 9 0 14 0;
#X connect 10 0 14 0;
#X connect 11 0 10 1;
#X connect 12 0 10 0;
#X connect 13 0 2 0;
#X restore 268 86 pd Step_SFX;
#N canvas 1814 664 893 755 Token_SFX 0;
#X obj 174 14 inlet;
#X obj 145 213 throw~ sfx_token;
#X obj 145 181 osc~;
#X msg 212 51 \$1;
#X msg 89 106 0;
#X obj 153 36 bng 15 250 50 0 empty empty empty 17 7 0 10 -262144 -1
-1;
#X obj 79 61 delay 250;
#X obj 151 151 * 75;
#X obj 186 106 + 1;
#X connect 0 0 3 0;
#X connect 0 0 5 0;
#X connect 2 0 1 0;
#X connect 3 0 8 0;
#X connect 4 0 7 0;
#X connect 5 0 6 0;
#X connect 6 0 4 0;
#X connect 7 0 2 0;
#X connect 8 0 7 0;
#X restore 470 85 pd Token_SFX;
#N canvas 1706 600 822 848 Damaged_SFX 0;
#X obj 426 51 inlet;
#X obj 431 97 t b b;
#X obj 185 192 vline~;
#X obj 176 236 *~;
#X obj 75 302 *~;
#X obj 83 224 noise~;
#X floatatom 252 251 5 0 0 0 - - -;
#X floatatom 320 235 5 0 0 0 - - -;
#X obj 168 653 *~ 4;
#X floatatom 223 590 5 0 0 0 - - -;
#X obj 367 556 hip~ 8000;
#X obj 271 305 bp~ 5000 3;
#X msg 189 144 0 0 0 \, 1 1 0 \, 0.25 50 5 \, 0 250 1;
#X obj 77 461 bp~ 3500 20;
#X obj 327 659 throw~ sfx_damaged;
#X connect 0 0 1 0;
#X connect 1 0 12 0;
#X connect 1 1 14 0;
#X connect 2 0 3 0;
#X connect 2 0 3 1;
#X connect 3 0 4 1;
#X connect 4 0 11 0;
#X connect 4 0 13 0;
#X connect 5 0 4 0;
#X connect 6 0 11 1;
#X connect 7 0 11 2;
#X connect 8 0 14 0;
#X connect 9 0 8 1;
#X connect 10 0 14 0;
#X connect 11 0 10 0;
#X connect 12 0 2 0;
#X connect 13 0 8 0;
#X restore 359 85 pd Damaged_SFX;
#X obj 269 66 bng 15 250 50 0 empty empty empty 17 7 0 10 -262144 -1
-1;
#N canvas 734 513 1644 1186 Music 0;
#X obj 261 117 tgl 15 0 empty empty empty 17 7 0 10 -262144 -1 -1 0
1;
#X obj 233 183 *~;
#X obj 134 280 throw~ sfx_music;
#X obj 244 20 inlet;
#X obj 250 67 > 0;
#X obj 427 32 inlet;
#N canvas 1441 216 831 684 bach 0;
#X obj 153 44 inlet;
#X obj 135 415 outlet;
#X obj 153 73 t b b;
#X msg 183 107 set_length 9;
#X obj 15 107 t b b b b b b b b b b;
#X msg 15 360 values 261.626 293.665 329.628 391.995 440 523.251 587.33
659.255 698.456;
#X text 11 340 the notes in first 2 bars of JS Bach WTC 1 no. 1 prelude
;
#X msg 280 152 event_odds 0 0 1 1 0 0 0 0 0 0;
#X msg 280 172 event_odds 1 0 0 0 0 1 0 0 0 0;
#X msg 280 192 event_odds 2 0 0 0 1 0 0 0 0 0;
#X msg 280 212 event_odds 3 0 0 0 0 0 1 0 0 0;
#X msg 280 232 event_odds 4 0 0 0 0 0 0 1 0 0;
#X msg 280 254 event_odds 5 0 0 0 0 0 0 0 1 0;
#X msg 280 276 event_odds 6 0 0 0 0 0 0 0 0 1;
#X msg 281 297 event_odds 7 1 0 0 1 0 0 0 0 0;
#X msg 281 317 event_odds 8 1 0 0 0 1 0 0 0 0;
#X text 189 398 If you do not know about transition matrices please
see Xenakis's Formalized Music or whatever Web info you can find on
first order Markov chains.;
#X connect 0 0 2 0;
#X connect 2 0 4 0;
#X connect 2 1 3 0;
#X connect 3 0 1 0;
#X connect 4 0 5 0;
#X connect 4 1 15 0;
#X connect 4 2 14 0;
#X connect 4 3 13 0;
#X connect 4 4 12 0;
#X connect 4 5 11 0;
#X connect 4 6 10 0;
#X connect 4 7 9 0;
#X connect 4 8 8 0;
#X connect 4 9 7 0;
#X connect 5 0 1 0;
#X connect 7 0 1 0;
#X connect 8 0 1 0;
#X connect 9 0 1 0;
#X connect 10 0 1 0;
#X connect 11 0 1 0;
#X connect 12 0 1 0;
#X connect 13 0 1 0;
#X connect 14 0 1 0;
#X connect 15 0 1 0;
#X restore 521 196 pd bach;
#X obj 521 171 loadbang;
#N canvas 1133 665 905 519 tempo-control 0;
#X obj 138 101 unpack f f;
#X floatatom 138 127 5 0 0 0 - - -;
#X floatatom 205 130 5 0 0 0 - - -;
#X msg 138 157 tempo \$1;
#X msg 205 157 subdiv \$1;
#X obj 138 207 outlet;
#X obj 138 39 inlet;
#X obj 62 37 loadbang;
#X msg 138 69 \$1 \$2;
#X connect 0 0 1 0;
#X connect 0 1 2 0;
#X connect 1 0 3 0;
#X connect 2 0 4 0;
#X connect 3 0 5 0;
#X connect 4 0 5 0;
#X connect 6 0 8 0;
#X connect 7 0 8 0;
#X connect 8 0 0 0;
#X restore 389 141 pd tempo-control;
#X obj 494 171 bng 15 250 50 0 empty empty empty 0 -6 0 8 -262144 -1
-1;
#N canvas 0 23 646 348 override 0;
#X obj 36 125 outlet;
#X msg 36 74 manual_override \$1;
#X obj 36 41 tgl 15 0 empty empty empty 0 -6 0 8 -262144 -1 -1 0 1
;
#X obj 238 89 bng 15 250 50 0 empty empty empty 0 -6 0 8 -262144 -1
-1;
#X text 62 44 turn off internal clock;
#X text 259 89 manually trigger the next event;
#X connect 1 0 0 0;
#X connect 2 0 1 0;
#X connect 3 0 0 0;
#X restore 385 212 pd override;
#X obj 521 240 lyonpotpourri/markov~ 10;
#X obj 521 274 osc~;
#X obj 540 125 print;
#X obj 513 42 inlet;
#X obj 406 84 pack f f;
#X connect 0 0 1 1;
#X connect 1 0 2 0;
#X connect 3 0 4 0;
#X connect 4 0 0 0;
#X connect 5 0 15 0;
#X connect 6 0 11 0;
#X connect 7 0 6 0;
#X connect 8 0 11 0;
#X connect 9 0 6 0;
#X connect 10 0 11 0;
#X connect 11 0 12 0;
#X connect 12 0 1 0;
#X connect 14 0 15 1;
#X connect 15 0 8 0;
#X restore 127 147 pd Music;
#X obj 123 35 r Game_Started;
#X msg 34 64 \; \$1 \$2 \$3 \$4;
#X obj 107 114 unpack f f f;
#X msg 125 68 \$1 \$2 \$3;
#X obj 641 38 r Jumped;
#X obj 641 64 bng 15 250 50 0 empty empty empty 17 7 0 10 -262144 -1
-1;
#N canvas 0 50 1454 1500 Jump_SFX 0;
#X obj 37 37 inlet;
#X obj 403 95 t b b;
#X obj 157 190 vline~;
#X obj 148 234 *~;
#X obj 47 300 *~;
#X obj 55 222 noise~;
#X floatatom 224 249 5 0 0 0 - - -;
#X floatatom 292 233 5 0 0 0 - - -;
#X obj 140 651 *~ 4;
#X floatatom 195 588 5 0 0 0 - - -;
#X obj 243 303 bp~ 5000 3;
#X obj 339 554 lop~ 8000;
#X obj 49 459 bp~ 200 20;
#X msg 161 142 0 0 0 \, 1 1 0 \, 0.25 200 5 \, 0 900 1;
#X obj 299 657 throw~ sfx_jump;
#X obj 17 17;
#X connect 0 0 1 0;
#X connect 1 0 13 0;
#X connect 1 1 14 0;
#X connect 2 0 3 0;
#X connect 2 0 3 1;
#X connect 3 0 4 1;
#X connect 4 0 10 0;
#X connect 4 0 12 0;
#X connect 5 0 4 0;
#X connect 6 0 10 1;
#X connect 7 0 10 2;
#X connect 8 0 14 0;
#X connect 9 0 8 1;
#X connect 10 0 11 0;
#X connect 11 0 14 0;
#X connect 12 0 8 0;
#X connect 13 0 2 0;
#X restore 641 84 pd Jump_SFX;
#X connect 0 0 1 0;
#X connect 0 0 13 0;
#X connect 2 0 10 0;
#X connect 3 0 4 0;
#X connect 4 0 9 0;
#X connect 5 0 6 0;
#X connect 6 0 8 0;
#X connect 10 0 7 0;
#X connect 12 0 15 0;
#X connect 14 0 11 0;
#X connect 14 1 11 1;
#X connect 14 2 11 2;
#X connect 15 0 14 0;
#X connect 16 0 17 0;
#X connect 17 0 18 0;
#X restore 61 111 pd Game_Sounds;
#N canvas 585 725 2115 989 mixer 1;
#X obj 176 341 dac~;
#X obj 61 241 *~;
#X obj 6 6 loadbang;
#X msg 6 28 1 1 1 1 1 1;
#X obj 6 50 unpack f f f f f f;
#X obj 127 243 *~;
#X obj 191 247 *~;
#X obj 153 47 env~;
#X obj 251 243 *~;
#X obj 533 27 env~;
#X obj 407 28 env~;
#X obj 267 48 env~;
#X msg 76 190 \$1 10;
#X obj 76 212 line~;
#X msg 142 192 \$1 10;
#X obj 142 214 line~;
#X msg 206 196 \$1 10;
#X obj 206 218 line~;
#X msg 266 192 \$1 10;
#X obj 266 214 line~;
#X obj 130 131 vsl 8 32 0 1 0 0 empty empty step 0 -9 0 10 -204786
-1 -1 2800 1;
#X obj 140 131 vsl 8 32 0 100 0 0 empty empty empty 0 40 0 10 -262144
-1 -1 0 1;
#X obj 200 132 vsl 8 32 0 1 0 0 empty empty damage 0 -9 0 10 -204786
-1 -1 3200 1;
#X obj 240 132 vsl 8 32 0 1 0 0 empty empty collect 0 -9 0 10 -204786
-1 -1 1800 1;
#X obj 288 132 vsl 8 32 0 1 0 0 empty empty music 0 -9 0 10 -204786
-1 -1 1400 1;
#X obj 298 132 vsl 8 32 0 100 0 0 empty empty empty 0 40 0 10 -262144
-1 -262144 0 1;
#X obj 250 132 vsl 8 32 0 100 0 0 empty empty empty 0 40 0 10 -262144
-1 -262144 6022 1;
#X obj 210 132 vsl 8 32 0 100 0 0 empty empty empty 0 40 0 10 -262144
-1 -262144 0 1;
#X obj 533 5 catch~ sfx_music;
#X obj 143 5 catch~ sfx_step;
#X obj 265 6 catch~ sfx_damaged;
#X obj 407 6 catch~ sfx_token;
#X obj 316 243 *~;
#X obj 657 26 env~;
#X msg 331 192 \$1 10;
#X obj 331 214 line~;
#X obj 165 131 vsl 8 32 0 1 0 0 empty empty jump 0 -9 0 10 -204786
-1 -1 0 1;
#X obj 175 131 vsl 8 32 0 100 0 0 empty empty empty 0 40 0 10 -262144
-1 -262144 0 1;
#X obj 657 4 catch~ sfx_jump;
#X connect 1 0 0 0;
#X connect 1 0 0 1;
#X connect 2 0 3 0;
#X connect 3 0 4 0;
#X connect 4 0 20 0;
#X connect 4 1 22 0;
#X connect 4 2 23 0;
#X connect 4 3 36 0;
#X connect 4 5 24 0;
#X connect 5 0 0 0;
#X connect 5 0 0 1;
#X connect 6 0 0 0;
#X connect 6 0 0 1;
#X connect 7 0 21 0;
#X connect 8 0 0 0;
#X connect 8 0 0 1;
#X connect 9 0 25 0;
#X connect 10 0 26 0;
#X connect 11 0 27 0;
#X connect 12 0 13 0;
#X connect 13 0 1 1;
#X connect 14 0 15 0;
#X connect 15 0 5 1;
#X connect 16 0 17 0;
#X connect 17 0 6 1;
#X connect 18 0 19 0;
#X connect 19 0 8 1;
#X connect 20 0 12 0;
#X connect 22 0 14 0;
#X connect 23 0 16 0;
#X connect 24 0 18 0;
#X connect 28 0 8 0;
#X connect 28 0 9 0;
#X connect 29 0 1 0;
#X connect 29 0 7 0;
#X connect 30 0 11 0;
#X connect 30 0 5 0;
#X connect 31 0 6 0;
#X connect 31 0 10 0;
#X connect 32 0 0 0;
#X connect 32 0 0 1;
#X connect 33 0 37 0;
#X connect 34 0 35 0;
#X connect 35 0 32 1;
#X connect 36 0 34 0;
#X connect 38 0 32 0;
#X connect 38 0 33 0;
#X coords 0 -1 1 1 230 75 1 100 100;
#X restore 231 127 pd mixer;
#X connect 0 0 3 0;
#X connect 2 0 1 0;
#X connect 3 0 4 0;
