#N canvas 982 1051 1679 795 12;
#N canvas 1475 428 681 300 OSC_Receive 1;
#X obj 32 102 netreceive -u -b;
#X msg 44 75 listen 0;
#X text 133 74 stop listening;
#X text 171 102 UDP packets \, binary output, f 13;
#X obj 32 18 loadbang;
#X obj 32 124 outlet;
#X text 134 47 listen on port 8002;
#X msg 32 47 listen 8001;
#X connect 0 0 5 0;
#X connect 1 0 0 0;
#X connect 4 0 7 0;
#X connect 7 0 0 0;
#X restore 29 53 pd OSC_Receive;
#X obj 30 99 oscparse;
#N canvas 1925 794 929 374 SimpleTest_Sound 1;
#X obj 37 37 inlet;
#X msg 34 64 \; \$1 \$2 \$3;
#X obj 15 64 bng 15 250 50 0 empty empty empty 17 7 0 10 -262144 -1
-1;
#X obj 164 39 r Simple_Test @hv_param 0 1 0;
#X msg 164 63 \$1;
#X floatatom 164 96 5 0 0 0 - - -;
#X obj 35 131 r test_tag;
#X obj 37 162 print;
#X obj 220 71 bng 15 250 50 0 empty empty empty 17 7 0 10 -262144 -1
-1;
#X connect 0 0 2 0;
#X connect 0 0 1 0;
#X connect 3 0 4 0;
#X connect 3 0 8 0;
#X connect 4 0 5 0;
#X connect 6 0 7 0;
#X restore 30 126 pd SimpleTest_Sound;
#X msg 203 78 \; pd dsp 1;
#X obj 203 55 loadbang;
#X obj 31 161 r Test_Signal;
#X obj 30 192 bang;
#X msg 31 223 1;
#X obj 31 264 tgl 15 0 empty empty empty 17 7 0 10 -262144 -1 -1 0
1;
#X obj 116 103 print;
#X connect 0 0 9 0;
#X connect 0 0 1 0;
#X connect 1 0 2 0;
#X connect 4 0 3 0;
#X connect 5 0 6 0;
#X connect 6 0 7 0;
#X connect 7 0 8 0;
